<?xml version="1.0" encoding="iso-8859-1"?>
<!-- Generator: Adobe Illustrator 19.0.0, SVG Export Plug-In . SVG Version: 6.00 Build 0)  -->
<svg version="1.1" id="Capa_1" xmlns="http://www.w3.org/2000/svg" xmlns:xlink="http://www.w3.org/1999/xlink" x="0px" y="0px"
	 viewBox="0 0 512 512" style="enable-background:new 0 0 512 512;" xml:space="preserve">
<path style="fill:#303C42;" d="M508.875,259.125L402.208,152.458c-2-2-4.708-3.125-7.542-3.125H384v-10.667
	c0-17.646-14.354-32-32-32c-17.646,0-32,14.354-32,32v10.667h-21.333v-10.667V96c0-5.896-4.771-10.667-10.667-10.667H42.667
	C19.135,85.333,0,104.469,0,128v266.667c0,17.646,14.354,32,32,32h25.266c8.835,24.779,32.293,42.667,60.068,42.667
	s51.234-17.888,60.069-42.667h157.197c8.835,24.779,32.293,42.667,60.068,42.667c27.775,0,51.234-17.888,60.069-42.667h14.598
	C492.865,426.667,512,407.531,512,384V266.667C512,263.833,510.875,261.125,508.875,259.125z"/>
<path style="fill:#FFFFFF;" d="M42.667,106.667h234.667v32V160v117.333h-256V128C21.333,116.24,30.906,106.667,42.667,106.667z"/>
<circle style="fill:#5C6671;" cx="117.333" cy="405.333" r="42.667"/>
<path style="fill:#E53935;" d="M117.333,341.333c-35.292,0-64,28.708-64,64H32c-5.885,0-10.667-4.781-10.667-10.667v-96h256v106.667
	h-96C181.333,370.042,152.625,341.333,117.333,341.333z"/>
<circle style="fill:#5C6671;" cx="394.667" cy="405.333" r="42.667"/>
<path style="fill:#FAFAFA;" d="M490.667,384c0,11.76-9.573,21.333-21.333,21.333h-10.667c0-35.292-28.708-64-64-64s-64,28.708-64,64
	h-32V170.667h91.583l100.417,100.417V384z"/>
<g>
	<path style="fill:#303C42;" d="M362.667,202.667c0-5.896-4.771-10.667-10.667-10.667c-5.896,0-10.667,4.771-10.667,10.667V288
		c0,5.896,4.771,10.667,10.667,10.667h106.667c5.896,0,10.667-4.771,10.667-10.667c0-5.896-4.771-10.667-10.667-10.667h-96V202.667z
		"/>
	<path style="fill:#303C42;" d="M352,85.333c5.896,0,10.667-4.771,10.667-10.667V53.333c0-5.896-4.771-10.667-10.667-10.667
		c-5.896,0-10.667,4.771-10.667,10.667v21.333C341.333,80.563,346.104,85.333,352,85.333z"/>
</g>
<path style="opacity:0.1;enable-background:new    ;" d="M390.25,149.333h-0.283l79.366,79.366v134.25
	c0,9.486-6.329,17.27-14.913,20.034c2.622,6.984,4.246,14.461,4.246,22.35h10.667c11.771,0,21.333-9.573,21.333-21.333V249.75
	L390.25,149.333z"/>
<path style="opacity:0.1;enable-background:new    ;" d="M277.333,384.283h-99.842c2.328,6.626,3.842,13.638,3.842,21.051h96
	V384.283z"/>
<path style="opacity:0.1;enable-background:new    ;" d="M298.667,384.283v21.051h32c0-7.413,1.516-14.424,3.844-21.051H298.667z"/>
<g>
	<path style="fill:#303C42;" d="M384,96c2.729,0,5.458-1.042,7.542-3.125l10.667-10.667c4.167-4.167,4.167-10.917,0-15.083
		c-4.167-4.167-10.917-4.167-15.083,0l-10.667,10.667c-4.167,4.167-4.167,10.917,0,15.083C378.542,94.958,381.271,96,384,96z"/>
	<path style="fill:#303C42;" d="M312.458,92.875C314.542,94.958,317.271,96,320,96c2.729,0,5.458-1.042,7.542-3.125
		c4.167-4.167,4.167-10.917,0-15.083l-10.667-10.667c-4.167-4.167-10.917-4.167-15.083,0c-4.167,4.167-4.167,10.917,0,15.083
		L312.458,92.875z"/>
</g>
<g>
	<path style="fill:#D32F2F;" d="M117.333,202.667h21.333V224c0,5.896,4.771,10.667,10.667,10.667
		c5.896,0,10.667-4.771,10.667-10.667v-21.333h21.333c5.896,0,10.667-4.771,10.667-10.667c0-5.896-4.771-10.667-10.667-10.667H160
		V160c0-5.896-4.771-10.667-10.667-10.667c-5.896,0-10.667,4.771-10.667,10.667v21.333h-21.333c-5.896,0-10.667,4.771-10.667,10.667
		C106.667,197.896,111.438,202.667,117.333,202.667z"/>
	<path style="fill:#D32F2F;" d="M341.333,138.667c0-5.885,4.781-10.667,10.667-10.667c5.885,0,10.667,4.781,10.667,10.667v10.667
		h-21.333V138.667z"/>
</g>
<path style="opacity:0.1;enable-background:new    ;" d="M21.333,384.283v10.384c0,5.885,4.792,10.667,10.667,10.667h21.333
	c0-7.413,1.516-14.424,3.844-21.051H21.333z"/>
<linearGradient id="SVGID_1_" gradientUnits="userSpaceOnUse" x1="-47.2554" y1="639.743" x2="-22.6057" y2="628.2501" gradientTransform="matrix(21.3333 0 0 -21.3333 996.3334 13791.667)">
	<stop  offset="0" style="stop-color:#FFFFFF;stop-opacity:0.2"/>
	<stop  offset="1" style="stop-color:#FFFFFF;stop-opacity:0"/>
</linearGradient>
<path style="fill:url(#SVGID_1_);" d="M508.875,259.125L402.208,152.458c-2-2-4.708-3.125-7.542-3.125H384v-10.667
	c0-17.646-14.354-32-32-32c-17.646,0-32,14.354-32,32v10.667h-21.333V96c0-5.896-4.771-10.667-10.667-10.667H42.667
	C19.135,85.333,0,104.469,0,128v266.667c0,17.646,14.354,32,32,32h25.266c8.835,24.779,32.293,42.667,60.068,42.667
	s51.234-17.888,60.069-42.667h157.197c8.835,24.779,32.293,42.667,60.068,42.667c27.775,0,51.234-17.888,60.069-42.667h14.598
	C492.865,426.667,512,407.531,512,384V266.667C512,263.833,510.875,261.125,508.875,259.125z M352,85.333
	c5.896,0,10.667-4.771,10.667-10.667V53.333c0-5.896-4.771-10.667-10.667-10.667c-5.896,0-10.667,4.771-10.667,10.667v21.333
	C341.333,80.563,346.104,85.333,352,85.333z M384,96c2.729,0,5.458-1.042,7.542-3.125l10.667-10.667
	c4.167-4.167,4.167-10.917,0-15.083c-4.167-4.167-10.917-4.167-15.083,0l-10.667,10.667c-4.167,4.167-4.167,10.917,0,15.083
	C378.542,94.958,381.271,96,384,96z M312.458,92.875C314.542,94.958,317.271,96,320,96c2.729,0,5.458-1.042,7.542-3.125
	c4.167-4.167,4.167-10.917,0-15.083l-10.667-10.667c-4.167-4.167-10.917-4.167-15.083,0c-4.167,4.167-4.167,10.917,0,15.083
	L312.458,92.875z"/>
<g>
</g>
<g>
</g>
<g>
</g>
<g>
</g>
<g>
</g>
<g>
</g>
<g>
</g>
<g>
</g>
<g>
</g>
<g>
</g>
<g>
</g>
<g>
</g>
<g>
</g>
<g>
</g>
<g>
</g>
</svg>
